<?xml version="1.0" encoding="UTF-8"?>
<svg id="Layer_2" data-name="Layer 2" xmlns="http://www.w3.org/2000/svg" viewBox="0 0 283.76 86.58">
  <defs>
    <style>
      .cls-1 {
        letter-spacing: 0em;
      }

      .cls-2 {
        fill: #f15a24;
      }

      .cls-2, .cls-3 {
        stroke-width: 0px;
      }

      .cls-4 {
        fill: none;
        stroke: #fff;
        stroke-linecap: round;
        stroke-linejoin: round;
        stroke-width: 2px;
      }

      .cls-5 {
        letter-spacing: 0em;
      }

      .cls-6 {
        letter-spacing: .02em;
      }

      .cls-7 {
        letter-spacing: -.05em;
      }

      .cls-8 {
        letter-spacing: 0em;
      }

      .cls-9 {
        letter-spacing: 0em;
      }

      .cls-10 {
        letter-spacing: -.02em;
      }

      .cls-11 {
        font-family: Montserrat-Light, Montserrat;
        font-size: 8px;
        font-weight: 300;
      }

      .cls-11, .cls-3 {
        fill: #fff;
      }
    </style>
  </defs>
  <g id="Layer_1-2" data-name="Layer 1">
    <path class="cls-3" d="M9.36,71.46c-3.84-1.01-6.96-2.35-9.36-4.03l4.68-10.51c2.26,1.49,4.87,2.69,7.85,3.6,2.98.91,5.9,1.37,8.78,1.37,5.47,0,8.21-1.37,8.21-4.1,0-1.44-.78-2.51-2.34-3.2-1.56-.69-4.07-1.43-7.52-2.2-3.79-.82-6.96-1.69-9.5-2.63-2.54-.94-4.73-2.44-6.55-4.5-1.82-2.06-2.74-4.85-2.74-8.35,0-3.07.84-5.84,2.52-8.32,1.68-2.47,4.19-4.43,7.52-5.87,3.34-1.44,7.43-2.16,12.28-2.16,3.31,0,6.58.37,9.79,1.12,3.22.74,6.05,1.84,8.5,3.28l-4.39,10.58c-4.8-2.59-9.46-3.89-13.97-3.89-2.83,0-4.9.42-6.19,1.26-1.3.84-1.94,1.93-1.94,3.28s.77,2.35,2.3,3.02c1.54.67,4.01,1.37,7.42,2.09,3.84.82,7.02,1.69,9.54,2.63s4.7,2.42,6.55,4.46c1.85,2.04,2.77,4.81,2.77,8.32,0,3.02-.84,5.76-2.52,8.21-1.68,2.45-4.2,4.4-7.56,5.87-3.36,1.46-7.44,2.2-12.24,2.2-4.08,0-8.04-.5-11.88-1.51Z"/>
    <path class="cls-3" d="M66.18,58.28l-4.03,4.1v9.58h-13.68V18.54h13.68v28.01l13.97-13.61h16.2l-16.2,16.7,17.57,22.32h-16.56l-10.94-13.68Z"/>
    <path class="cls-3" d="M143.88,32.94l-16.85,40.61c-1.97,4.8-4.37,8.17-7.2,10.12-2.83,1.94-6.29,2.92-10.37,2.92-2.06,0-4.14-.32-6.23-.97-2.09-.65-3.78-1.5-5.08-2.56l4.75-9.58c.77.72,1.69,1.28,2.77,1.69,1.08.41,2.17.61,3.28.61,1.3,0,2.36-.26,3.2-.79.84-.53,1.55-1.37,2.12-2.52l-16.7-39.53h14.04l9.58,23.83,9.65-23.83h13.03Z"/>
    <path class="cls-3" d="M148.79,18.54h13.68v53.42h-13.68V18.54Z"/>
    <path class="cls-3" d="M232.09,36.61c2.95,2.88,4.43,7.22,4.43,13.03v22.32h-13.68v-20.09c0-5.33-2.14-7.99-6.41-7.99-2.35,0-4.24.77-5.65,2.3-1.42,1.54-2.12,3.84-2.12,6.91v18.86h-13.68v-39.02h13.03v4.25c1.54-1.58,3.36-2.8,5.47-3.64,2.11-.84,4.42-1.26,6.91-1.26,4.85,0,8.75,1.44,11.7,4.32Z"/>
    <path class="cls-3" d="M283.55,55.9h-28.37c.58,2.02,1.69,3.56,3.35,4.64,1.66,1.08,3.73,1.62,6.23,1.62,1.87,0,3.49-.26,4.86-.79,1.37-.53,2.75-1.39,4.14-2.59l7.2,7.49c-3.79,4.22-9.34,6.34-16.63,6.34-4.56,0-8.57-.86-12.02-2.59s-6.13-4.13-8.03-7.2c-1.9-3.07-2.84-6.55-2.84-10.44s.92-7.28,2.77-10.33c1.85-3.05,4.4-5.44,7.67-7.16,3.26-1.73,6.94-2.59,11.02-2.59s7.42.8,10.58,2.41c3.17,1.61,5.68,3.94,7.52,6.98,1.85,3.05,2.77,6.66,2.77,10.84,0,.1-.07,1.22-.22,3.38ZM257.66,43.81c-1.42,1.2-2.32,2.83-2.7,4.9h15.98c-.38-2.06-1.28-3.7-2.7-4.9-1.42-1.2-3.18-1.8-5.29-1.8s-3.88.6-5.29,1.8Z"/>
    <path class="cls-4" d="M189.24,70.73V12.93s-8.77,1.65-8.77,9.41v48.4h8.77Z"/>
    <rect class="cls-4" x="167.84" y="26.19" width="12.62" height="44.54"/>
    <line class="cls-4" x1="170.85" y1="32.27" x2="172.48" y2="32.27"/>
    <line class="cls-4" x1="175.83" y1="32.27" x2="177.46" y2="32.27"/>
    <line class="cls-4" x1="170.85" y1="36.29" x2="172.48" y2="36.29"/>
    <line class="cls-4" x1="175.83" y1="36.29" x2="177.46" y2="36.29"/>
    <line class="cls-4" x1="170.85" y1="40.37" x2="172.48" y2="40.37"/>
    <line class="cls-4" x1="175.83" y1="40.37" x2="177.46" y2="40.37"/>
    <line class="cls-4" x1="170.85" y1="44.38" x2="172.48" y2="44.38"/>
    <line class="cls-4" x1="175.83" y1="44.38" x2="177.46" y2="44.38"/>
    <line class="cls-4" x1="170.85" y1="48.39" x2="172.48" y2="48.39"/>
    <line class="cls-4" x1="175.83" y1="48.39" x2="177.46" y2="48.39"/>
    <line class="cls-4" x1="170.85" y1="52.47" x2="172.48" y2="52.47"/>
    <line class="cls-4" x1="175.83" y1="52.47" x2="177.46" y2="52.47"/>
    <line class="cls-4" x1="186.43" y1="13.87" x2="186.43" y2="70.73"/>
    <polyline class="cls-4" points="167.84 26.19 172.15 23.01 180.47 23.01"/>
    <line class="cls-4" x1="170.85" y1="56.55" x2="172.48" y2="56.55"/>
    <line class="cls-4" x1="175.83" y1="56.55" x2="177.46" y2="56.55"/>
    <line class="cls-4" x1="170.85" y1="60.64" x2="172.48" y2="60.64"/>
    <line class="cls-4" x1="175.83" y1="60.64" x2="177.46" y2="60.64"/>
    <line class="cls-4" x1="170.85" y1="64.65" x2="172.48" y2="64.65"/>
    <line class="cls-4" x1="175.83" y1="64.65" x2="177.46" y2="64.65"/>
    <circle class="cls-2" cx="176.24" cy="6" r="6"/>
    <text class="cls-11" transform="translate(159.79 82.23)"><tspan class="cls-5" x="0" y="0">A</tspan><tspan x="5.6" y="0">d</tspan><tspan class="cls-10" x="11" y="0">v</tspan><tspan x="15.1" y="0">a</tspan><tspan class="cls-1" x="19.76" y="0">n</tspan><tspan class="cls-9" x="25.15" y="0">c</tspan><tspan x="29.52" y="0">ed </tspan><tspan class="cls-7" x="41.75" y="0">T</tspan><tspan x="45.82" y="0">e</tspan><tspan class="cls-9" x="50.59" y="0">c</tspan><tspan x="54.96" y="0">hnical Se</tspan><tspan class="cls-6" x="90.71" y="0">r</tspan><tspan x="93.98" y="0">vi</tspan><tspan class="cls-9" x="100.29" y="0">c</tspan><tspan class="cls-8" x="104.66" y="0">es</tspan></text>
  </g>
</svg>